<svg width="76" height="76" viewBox="0 0 76 76" fill="none" xmlns="http://www.w3.org/2000/svg">
<path d="M38.4674 34.0667C38.4118 33.9957 38.3409 33.9383 38.2599 33.8989C38.1788 33.8594 38.0899 33.8389 37.9998 33.8389C37.9097 33.8389 37.8207 33.8594 37.7397 33.8989C37.6587 33.9383 37.5878 33.9957 37.5322 34.0667L29.2197 44.5835C29.1512 44.671 29.1087 44.776 29.097 44.8865C29.0854 44.9971 29.1051 45.1087 29.1538 45.2085C29.2026 45.3084 29.2785 45.3925 29.3728 45.4513C29.4672 45.5101 29.5761 45.5411 29.6873 45.5409H35.1721V63.5315C35.1721 63.8581 35.4392 64.1253 35.7658 64.1253H40.2189C40.5455 64.1253 40.8127 63.8581 40.8127 63.5315V45.5483H46.3123C46.8096 45.5483 47.0842 44.9768 46.7799 44.5909L38.4674 34.0667Z" fill="#8196B3"/>
<path d="M60.2211 27.216C56.8219 18.2504 48.1605 11.875 38.0148 11.875C27.8691 11.875 19.2078 18.243 15.8086 27.2086C9.44805 28.8785 4.75 34.675 4.75 41.5625C4.75 49.7637 11.3926 56.4062 19.5863 56.4062H22.5625C22.8891 56.4062 23.1562 56.1391 23.1562 55.8125V51.3594C23.1562 51.0328 22.8891 50.7656 22.5625 50.7656H19.5863C17.0852 50.7656 14.7324 49.7711 12.9809 47.9676C11.2367 46.1715 10.309 43.752 10.3906 41.2434C10.4574 39.284 11.1254 37.4434 12.3352 35.8922C13.5746 34.3113 15.3113 33.1609 17.241 32.6488L20.0539 31.9141L21.0855 29.1977C21.7238 27.5055 22.6145 25.9246 23.7352 24.4922C24.8415 23.0724 26.1521 21.8244 27.6242 20.7887C30.6746 18.6438 34.2668 17.5082 38.0148 17.5082C41.7629 17.5082 45.3551 18.6438 48.4055 20.7887C49.8824 21.8277 51.1887 23.0746 52.2945 24.4922C53.4152 25.9246 54.3059 27.5129 54.9441 29.1977L55.9684 31.9066L58.7738 32.6488C62.7965 33.7324 65.6094 37.3914 65.6094 41.5625C65.6094 44.0191 64.652 46.3348 62.9152 48.0715C62.0635 48.9282 61.0503 49.6074 59.9343 50.0699C58.8183 50.5323 57.6217 50.7688 56.4137 50.7656H53.4375C53.1109 50.7656 52.8438 51.0328 52.8438 51.3594V55.8125C52.8438 56.1391 53.1109 56.4062 53.4375 56.4062H56.4137C64.6074 56.4062 71.25 49.7637 71.25 41.5625C71.25 34.6824 66.5668 28.8934 60.2211 27.216Z" fill="#8196B3"/>
</svg>
